<?xml version="1.0" encoding="UTF-8" standalone="no"?><!DOCTYPE svg PUBLIC "-//W3C//DTD SVG 1.1//EN" "http://www.w3.org/Graphics/SVG/1.1/DTD/svg11.dtd"><svg width="100%" height="100%" viewBox="0 0 142 133" version="1.1" xmlns="http://www.w3.org/2000/svg" xmlns:xlink="http://www.w3.org/1999/xlink" xml:space="preserve" xmlns:serif="http://www.serif.com/" style="fill-rule:evenodd;clip-rule:evenodd;stroke-linecap:round;"><ellipse cx="71.327" cy="62.005" rx="62.678" ry="62.187" style="fill:#fff;"/><path d="M27.394,101.661l-18.216,4.489l2.545,10.325l18.216,-4.489l-2.545,-10.325Z" style="fill:#fff;"/><path d="M138.373,114.024l-26.135,-3.383l-2.074,16.023l26.135,3.383l2.074,-16.023Z" style="fill:#fff;"/><g><g><path d="M120.665,20.266c4.788,5.105 -3.738,6.959 0,-0Z"/><path d="M131.637,61.408c1.891,-4.364 1.359,4.846 1.371,6.858c-1.889,4.365 -1.355,-4.846 -1.371,-6.858Z"/><path d="M17.807,62.78c2.592,0.153 0.953,4.534 4.115,4.115c-0.928,4.386 -4.558,2.587 -5.486,4.113c-4.664,-2.592 2.349,-4.807 1.371,-8.228Z"/><path d="M27.408,129.98l-4.114,0c-0.756,-3.042 2.618,-1.953 2.742,-4.114c1.608,0.221 1.158,2.5 1.372,4.114Z"/><path d="M24.665,21.637c11.857,-19.509 53.522,-29.772 76.8,-13.714l-0.686,2.057l2.057,0.686c1.238,5.645 -10.278,-2.859 -5.485,5.485c-1.591,-1.15 -3.676,-1.81 -6.857,-1.372c-0.387,-2.215 1.296,-2.361 1.371,-4.114c-11.733,-1.87 -13.3,-3.077 -20.571,-0c-3.849,-0.017 3.265,-3.742 -2.743,-2.743c-0.065,2.09 -4.548,4.937 -8.229,5.486l-1.372,-0.687l-1.371,0.687c-5.122,-0.124 -3.91,-1.538 -8.229,-0c0.425,1.861 3.434,1.138 5.486,1.371c-1.005,1.281 -2.494,2.078 -4.114,2.743l-2.057,-0.685l-0.685,2.058c-1.232,2.883 -3.803,4.425 -5.486,6.857c-1.607,-0.221 -1.155,-2.501 -1.371,-4.115c-2.616,0.585 -2.482,3.919 -6.858,2.743c2.648,1.467 5.606,2.624 4.115,8.229c-1.103,-0.726 -2.227,-1.43 -4.115,-1.372c-1.028,4.686 5.574,1.743 4.115,6.858c-2.216,-0.386 -2.361,1.296 -4.115,1.371l0,-1.371l-1.371,-0l0,-1.371c-5.199,1.524 0.494,5.426 -4.114,6.857c0.679,-5.471 -6.378,2.728 -9.6,-2.743c1.435,5.163 -1.594,10.451 -5.486,12.343l0,-2.743l-2.742,0c-0.081,-12.881 7.306,-18.293 10.971,-27.428l2.057,0.686l0.685,-2.059Z"/><path d="M13.008,60.723l0.686,-3.428l2.743,-0l-0.686,2.056l2.056,0.686c-1.138,3.432 -3.756,5.385 -4.113,9.6l-2.058,0.686l-0.685,2.057c-3.113,-1.459 -0.522,-8.621 -1.372,-12.343l3.429,0.686Z"/><path d="M28.094,101.866l-0.686,-2.057c1.034,-3.995 3.256,-6.801 5.486,-9.6l1.371,0.686l1.372,0.685c1.166,0.252 1.294,-0.535 1.371,-1.371l2.514,0.686l1.601,-2.058c1.608,-0.221 1.157,-2.5 1.371,-4.113c1.862,0.423 1.137,3.433 1.371,5.485c3.955,-4.047 -1.925,-9.892 0,-16.457c3.781,1.576 1.004,-6.087 4.115,-12.343c9.159,6.817 2.632,18.473 2.743,30.172c3.753,-2.189 1.533,-10.353 4.113,-13.715l2.058,0.687l2.056,0.685c4.406,1.206 1.88,-4.52 5.486,-4.114l2.057,0.686l0.685,-2.057c7.788,3.392 0.563,-11.702 9.6,-9.6c-0.425,-4.146 1.523,-10.667 -2.742,-10.972c7.179,-4.62 -0.991,-10.977 -1.371,-16.457c1.333,-0.037 1.065,-1.677 1.371,-2.742c5.437,0.506 13.142,-1.258 16.457,1.371c-2.942,11.856 -2.842,18.263 -4.114,31.543l0.686,1.371l0.685,1.372l-1.371,-0c0.849,3.721 -1.741,10.884 1.371,12.343l-0.685,2.056l2.057,0.686c1.78,3.402 -3.061,6.657 -0,6.858c0.891,-1.395 3.154,-1.419 2.742,-4.114l2.515,0.685l1.6,-2.057c3.723,-0.98 -0.982,6.467 2.743,5.486c-0.254,-1.167 0.534,-1.294 1.371,-1.371c1.805,-1.665 0.4,-1.875 -0,-2.743c-1.141,-2.483 -0.312,-10.274 2.743,-16.457c-1.221,-0.609 -2.454,-1.204 -2.743,-2.743l2.058,-0.688l-0.686,-2.057c0.609,-1.22 1.204,-2.453 2.743,-2.743c-2.938,-3.681 -2.938,-7.29 0,-10.971l2.057,-0.685l0.684,-2.058c2.744,2.189 4.048,10.353 1.373,13.714c5.705,1.471 0.441,5.963 5.485,6.858c1.086,4.742 -1.524,5.79 -2.742,8.228l4.113,0l3.429,0.687l3.428,0.685l-0,12.343c1.237,3.743 3.069,-4.172 5.485,-0c-9.429,0.116 -6.632,24.046 10.972,20.572c-0.21,6.249 -1.135,5.381 0,10.971l-2.059,-0.686l0.688,2.057c-2.842,0.816 -9.01,-1.694 -9.601,1.371l0.687,0.687l0.687,0.685c-1.17,-0.252 -1.297,0.535 -1.374,1.371l-2.056,-0.685l0.685,2.057c-20.684,2.496 -47.474,0.716 -69.942,-0c-5.797,-0.185 -14.022,4.56 -17.829,-2.743c-1.107,1.18 -3.757,0.816 -4.114,2.743c-7.461,-6.83 -16.005,-5.538 -28.8,-4.115c-1.381,-6.406 -1.259,-8.085 -4.115,-10.971c0.582,-3.075 2.943,-4.371 4.115,-6.857c-0.599,-1.687 -1.755,-2.817 -4.115,-2.743c1.62,-2.952 5.856,-3.288 4.115,-9.6l6.857,-0c1.783,3.405 -4.024,5.692 0,6.858l-0.686,2.056l0.686,2.057c-4.051,1.192 3.182,2.053 1.372,5.486c6.73,-0.13 14.626,-4.856 12.343,-9.6l2.058,-0.686Zm84.341,-6.172c2.702,2.608 0.819,-11.001 1.373,-15.086c0.761,0.005 1.555,-1.11 0,-1.371c-2.629,3.315 -0.865,11.019 -1.373,16.457Zm-68.57,1.372c0.198,-1.621 2.444,-3.109 0,-4.115c-0.198,1.621 -2.442,3.11 0,4.115Zm39.772,13.714c4.376,-1.175 4.241,2.158 6.857,2.743c-0.171,-3.432 -2.618,-4.292 1.371,-5.485c4.083,4.967 9.42,6.435 6.858,1.371c3.038,1.154 6.038,9.401 9.6,5.486c-1.593,0.222 -2.44,-0.303 -2.742,-1.372c3.876,-5.057 -6.266,-7.814 -0,-10.971c-3.88,1.435 -9.409,-2.264 -9.6,-0c1.572,0.484 3.477,2.415 1.371,2.743c-0.768,-1.977 -2.139,-3.348 -4.114,-4.115c1.106,6.596 -3.932,-0.165 -5.486,0c-2.838,0.3 -0.842,3.922 -4.113,4.115c4.479,-0.265 -2.853,-4.681 -5.486,-1.372l-0.685,-2.057l-0.687,2.057c-1.372,-3.092 -10.353,0.088 -6.857,1.372l-0.685,2.514l2.057,1.6c-2.843,3.558 -8.023,4.777 -9.601,9.6l4.115,0c-0.384,-3.126 0.33,-5.156 2.742,-5.485c0.473,5.778 7.92,6.098 6.858,9.6c1.825,-3.48 6.087,2.012 9.6,1.371c0.755,-3.04 -2.619,-1.953 -2.743,-4.113c1.167,0.251 1.294,-0.537 1.372,-1.372c-3.076,-0.582 -4.372,-2.942 -6.858,-4.114c2.333,0.503 2.587,-1.07 2.742,-2.743l2.515,0.686l1.599,-2.059Zm46.628,6.857c-3.954,-2.759 -10.999,1.979 -6.858,-4.114c-3.384,1.186 -9.493,-0.351 -9.599,4.114c7.416,-0.059 13.043,2.684 16.457,0Z"/><path d="M95.98,76.495c0.484,1.8 2.415,2.157 2.743,4.113c-1.221,0.609 -2.453,1.204 -2.743,2.743l-2.057,-0.685l-2.058,0.685c-1.109,-0.261 -1.367,-1.375 -2.742,-1.371l0.686,-2.057l-2.057,-0.686c2.156,-1.044 2.049,-4.35 5.485,-4.113l0.686,2.056l2.057,-0.685Z"/><path d="M74.723,107.809l-0.687,-2.514l1.372,-0l-0.685,2.514l2.056,1.6c-0.385,2.215 1.297,2.361 1.372,4.114c-1.948,0.118 -3.884,0.226 -4.115,-1.371c1.557,-0.262 0.762,-1.377 0,-1.372c-1.026,3.359 -4.092,0.291 -1.371,-1.371l2.058,-1.6Z"/><path d="M69.923,12.037c1.991,1.202 -1.683,8.283 -5.486,8.229c-0.587,-5.157 4.289,-4.854 5.486,-8.229Z"/><path d="M130.265,92.951c1.104,0.727 2.226,1.43 4.116,1.372c-0.985,5.609 -8.115,3.592 -4.116,-1.372Z"/><g><path d="M56.894,38.78c-0.04,-1.411 0.314,-2.429 0.686,-3.428" style="fill:none;stroke:#000;stroke-width:1.73px;"/><path d="M13.008,129.295l2.743,-0" style="fill:none;stroke:#000;stroke-width:1.73px;"/><path d="M107.637,14.095c-0.845,-2.955 -3.793,-4.551 -6.858,-4.114" style="fill:none;stroke:#000;stroke-width:2.19px;"/><path d="M58.951,15.466l-0,-2.743" style="fill:none;stroke:#000;stroke-width:2.91px;"/><path d="M49.351,19.58c-0.081,-0.915 -0.379,-1.828 -0.686,-2.743" style="fill:none;stroke:#000;stroke-width:2.91px;"/><path d="M34.265,38.095c-0.835,1.427 -0.359,2.832 0.686,3.428" style="fill:none;stroke:#000;stroke-width:1.68px;"/><path d="M17.807,55.923c-0.399,0.891 -1.148,2.219 -2.056,3.428" style="fill:none;stroke:#000;stroke-width:2.29px;"/><path d="M23.98,100.495c1.371,0.441 2.743,0.837 4.114,1.371" style="fill:none;stroke:#000;stroke-width:3.52px;"/><path d="M34.951,86.78c-0.617,0.818 -0.592,2.463 -0.686,4.115" style="fill:none;stroke:#000;stroke-width:2.79px;"/><path d="M39.522,90.895c-1.095,-2.955 0.116,-5.942 0.23,-8.915" style="fill:none;stroke:#000;stroke-width:3.77px;"/><path d="M58.265,47.008c-2.221,10.297 -1.12,21.015 -1.371,31.544" style="fill:none;stroke:#000;stroke-width:3.92px;"/><path d="M66.494,45.637c0.158,0.228 0.315,0.454 0.474,0.681c-1.812,9.574 -1.806,19.578 -0.474,29.49" style="fill:none;stroke:#000;stroke-width:3.02px;"/><path d="M94.265,68.266c0.23,-0.456 0.457,-0.915 0.686,-1.371" style="fill:none;stroke:#000;stroke-width:3.07px;"/><path d="M94.951,66.895c-1.62,-8.094 0.971,-14.961 0.343,-22.629" style="fill:none;stroke:#000;stroke-width:2.84px;"/><path d="M94.951,66.895c2.659,-0.058 4.878,-0.092 7.201,0.685" style="fill:none;stroke:#000;stroke-width:2.91px;"/><path d="M106.265,47.008c-0.726,0.816 -0.474,2.463 0,4.115" style="fill:none;stroke:#000;stroke-width:2.96px;"/><path d="M118.608,78.552l0,-15.086" style="fill:none;stroke:#000;stroke-width:6.46px;"/><path d="M11.636,104.608c4.918,2.458 8.959,-0.898 12.344,-4.113" style="fill:none;stroke:#000;stroke-width:3.53px;"/><path d="M23.98,100.495c-5.5,-9.704 -9.869,-19.033 -12.344,-30.172" style="fill:none;stroke:#000;stroke-width:2.98px;"/><path d="M13.008,60.723c-2.176,-3.076 -1.633,-7.44 0.686,-10.286" style="fill:none;stroke:#000;stroke-width:4.16px;"/><path d="M8.894,34.666c-0.324,-0.137 -0.649,-0.275 -0.972,-0.411c-1.716,-2.244 -2.203,-5.083 -2.403,-7.807c2.32,-7.938 13.721,-10.062 18.461,-2.753" style="fill:none;stroke:#000;stroke-width:2.68px;"/><path d="M94.265,68.266c0.468,2.898 0.748,6.111 -0.342,8.914" style="fill:none;stroke:#000;stroke-width:2.92px;"/><path d="M87.065,84.037c0.882,-1.371 1.673,-2.742 2.743,-4.114" style="fill:none;stroke:#000;stroke-width:2.38px;"/><path d="M94.265,68.266l-7.2,-0" style="fill:none;stroke:#000;stroke-width:2.91px;"/><path d="M94.379,88.152c-0.411,-1.829 -0.393,-3.656 -0.456,-5.486" style="fill:none;stroke:#000;stroke-width:4.23px;"/><path d="M76.094,107.351c2.982,0.288 4.965,2.833 5.943,5.486" style="fill:none;stroke:#000;stroke-width:3.5px;"/><path d="M69.237,107.809c1.829,-0.484 3.658,-0.317 5.486,-0" style="fill:none;stroke:#000;stroke-width:4.25px;"/><path d="M76.094,107.351c1.239,-2.119 1.146,-3.926 1.371,-5.485" style="fill:none;stroke:#000;stroke-width:1.68px;"/><path d="M76.094,107.351c-0.456,0.153 -0.915,0.304 -1.371,0.457" style="fill:none;stroke:#000;stroke-width:4.23px;"/><path d="M137.808,126.552c0.079,-1.372 -0.625,-2.743 -1.373,-4.115" style="fill:none;stroke:#000;stroke-width:1.73px;"/><path d="M125.465,127.923c3.358,2.182 8.191,1.508 11.923,0.952c0.21,-0.703 0.32,-1.51 0.42,-2.323" style="fill:none;stroke:#000;stroke-width:1.68px;"/><path d="M137.808,126.552l-9.6,-0" style="fill:none;stroke:#000;stroke-width:1.68px;"/><path d="M132.323,104.608c-3.624,-0.128 -8.451,-2.717 -8.229,-6.857" style="fill:none;stroke:#000;stroke-width:1.53px;"/><path d="M133.694,5.866c-4.069,2.509 -8.324,7 -13.496,4.413c-2.684,1.416 -4.851,4.242 -4.44,7.392c0.547,0.686 0.966,0.935 1.381,1.163c1.71,-1.05 4.936,0.458 5.584,-1.997" style="fill:none;stroke:#000;stroke-width:1.75px;"/><path d="M128.209,84.037c0.961,-1.371 1.047,-2.742 1.371,-4.114" style="fill:none;stroke:#000;stroke-width:1.66px;"/></g></g></g></svg>